HIERARCHY
ROOT Hips
{
	OFFSET 0.00000 0.00000 0.00000
	CHANNELS 6 Xposition Yposition Zposition Zrotation Yrotation Xrotation 
	JOINT RightUpLegDummy
	{
		OFFSET 0 0 0
		CHANNELS 3 Zrotation Yrotation Xrotation
		JOINT RightUpLeg
		{
			OFFSET -3.52197 -3.41223 0.04002
			CHANNELS 3 Zrotation Yrotation Xrotation
			JOINT RightLeg
			{
				OFFSET 0.00006 -17.42390 1.60435
				CHANNELS 3 Zrotation Yrotation Xrotation
				JOINT RightFoot
				{
					OFFSET 0.06154 -16.50078 -1.63900
					CHANNELS 3 Zrotation Yrotation Xrotation
					JOINT RightToes
					{
						OFFSET 0.00298 -1.73825 3.34613
						CHANNELS 3 Zrotation Yrotation Xrotation
						End Site
						{
							OFFSET 0.00480 -0.05416 3.85043
						}
					}
				}
			}
		}
	}
	JOINT SpineDummy
	{
		OFFSET 0 0 0
		CHANNELS 3 Zrotation Yrotation Xrotation
		JOINT Spine
		{
			OFFSET 0.00000 4.68130 0.00000
			CHANNELS 3 Zrotation Yrotation Xrotation
			JOINT Spine1
			{
				OFFSET -0.00000 10.10138 0.05002
				CHANNELS 3 Zrotation Yrotation Xrotation
				JOINT HEadDummy
				{
					OFFSET 0 0 0
					CHANNELS 3 Zrotation Yrotation Xrotation
					JOINT Head
					{
						OFFSET -0.00000 3.43865 0.00438
						CHANNELS 3 Zrotation Yrotation Xrotation
						End Site
						{
							OFFSET -0.11417 5.02924 0.98962
						}
					}
				}
				JOINT LeftShoulder1Dummy
				{
					OFFSET 0 0 0
					CHANNELS 3 Zrotation Yrotation Xrotation
					JOINT LeftShoulder1
					{
						OFFSET 3.53937 -0.14262 -0.08662
						CHANNELS 3 Zrotation Yrotation Xrotation
						JOINT LeftArm
						{
							OFFSET 4.04833 -0.00133 0.12681
							CHANNELS 3 Zrotation Yrotation Xrotation
							JOINT LeftForeArm
							{
								OFFSET 10.33880 -0.01036 -0.55515
								CHANNELS 3 Zrotation Yrotation Xrotation
								JOINT LeftHand
								{
									OFFSET 8.69677 0.07543 0.40060
									CHANNELS 3 Zrotation Yrotation Xrotation
									End Site
									{
										OFFSET 5.28377 -0.21905 0.59205
									}
								}
							}
						}
					}
				}
				JOINT RightShoulderDummy
				{
					OFFSET 0 0 0
					CHANNELS 3 Zrotation Yrotation Xrotation
					JOINT RightShoulder
					{
						OFFSET -3.53937 -0.14262 -0.08660
						CHANNELS 3 Zrotation Yrotation Xrotation
						JOINT RightArm
						{
							OFFSET -4.04833 -0.00133 0.12683
							CHANNELS 3 Zrotation Yrotation Xrotation
							JOINT RightForeArm
							{
								OFFSET -10.37987 -0.01039 -0.55511
								CHANNELS 3 Zrotation Yrotation Xrotation
								JOINT RightHand
								{
									OFFSET -8.67398 0.07538 0.40058
									CHANNELS 3 Zrotation Yrotation Xrotation
									End Site
									{
										OFFSET -5.24810 -0.21916 0.59204
									}
								}
							}
						}
					}
				}
			}
		}
	}
	JOINT LeftUpLegDummy
	{
		OFFSET 0 0 0
		CHANNELS 3 Zrotation Yrotation Xrotation
		JOINT LeftUpLeg
		{
			OFFSET 3.52197 -3.41223 0.04002
			CHANNELS 3 Zrotation Yrotation Xrotation
			JOINT LeftLeg
			{
				OFFSET -0.00012 -17.42399 1.60337
				CHANNELS 3 Zrotation Yrotation Xrotation
				JOINT LeftFoot
				{
					OFFSET -0.09972 -16.50070 -1.63802
					CHANNELS 3 Zrotation Yrotation Xrotation
					JOINT LeftToes
					{
						OFFSET -0.01575 -1.73823 3.34611
						CHANNELS 3 Zrotation Yrotation Xrotation
						End Site
						{
							OFFSET 0.03150 -0.01868 3.85031
						}
					}
				}
			}
		}
	}
}
MOTION
Frames: 16
Frame Time: 0.033333
-96.7745 40.0997 -1.0412 -72.5823 86.6839 -72.5484 0.0000 0.0000 0.0000 5.0644 -3.6609 -11.6733 -1.1737 -3.0300 19.5798 0.7661 -0.0543 -7.7016 0.0000 0.0000 -0.0000 0.0000 0.0000 0.0000 9.8532 -3.0792 -23.2695 -5.4238 0.7499 50.7353 0.0000 0.0000 0.0000 4.7761 6.7723 -17.2322 0.0000 0.0000 0.0000 0.1986 1.7502 0.1461 -78.8145 -27.9323 3.9884 -10.8928 -11.0959 23.3399 16.8771 -3.3866 -1.2529 0.0000 0.0000 0.0000 12.2906 1.5734 0.9834 71.3097 31.9461 -6.6750 8.6440 2.2802 37.6252 -5.1073 1.8336 -0.3015 0.0000 0.0000 0.0000 0.2999 -5.4113 -16.8023 14.4297 4.9150 64.9547 -4.1950 1.0467 18.3216 -0.0000 0.0000 -0.0000
-95.3779 40.2344 -0.9454 -32.6792 84.9877 -31.6494 0.0000 0.0000 0.0000 5.1893 -3.1352 -9.8853 -0.5432 -0.4144 18.2945 -0.5265 -0.0211 -8.7736 0.0000 0.0000 -0.0000 0.0000 0.0000 0.0000 10.9608 -0.8161 -23.2475 -5.8085 2.7055 47.4451 0.0000 0.0000 0.0000 4.7029 5.3217 -15.5709 0.0000 0.0000 0.0000 -1.3473 0.9972 0.2423 -77.2676 -24.7187 1.8517 -11.5158 -10.1088 25.3537 16.8685 -3.6439 -1.2880 0.0000 0.0000 0.0000 13.9692 1.2681 0.9981 68.5626 32.8519 -6.7652 9.1151 4.4702 35.7269 -4.9612 2.0743 -0.3012 0.0000 0.0000 0.0000 0.3318 -3.2385 -21.4207 12.5004 4.5643 63.4562 1.0036 -0.3794 14.4885 -0.0000 0.0000 -0.0000
-93.6945 40.3078 -0.8485 -19.5097 82.1728 -18.6882 0.0000 0.0000 0.0000 5.0649 -3.0408 -6.2240 0.0397 2.3396 17.0228 -1.8147 -0.0256 -10.4653 0.0000 0.0000 -0.0000 0.0000 0.0000 0.0000 11.6674 1.1173 -20.4827 -5.7154 4.1943 42.5755 0.0000 0.0000 0.0000 3.6140 4.6828 -14.1204 0.0000 0.0000 0.0000 -3.6461 0.1280 0.3939 -75.2373 -20.5921 -2.3041 -12.2607 -8.2569 29.1051 16.9019 -3.5633 -1.2793 0.0000 0.0000 0.0000 15.1831 1.1950 1.0350 65.8016 33.7060 -6.1944 9.4121 7.5185 33.2048 -5.6214 2.8514 -0.3744 0.0000 0.0000 0.0000 1.1707 -1.3762 -24.7495 10.8187 4.9802 58.6984 -4.8217 0.8219 8.9893 -0.0000 0.0000 -0.0000
-92.1132 40.3016 -0.7917 -9.7594 82.1700 -10.7091 0.0000 0.0000 0.0000 2.9254 -5.0070 -1.6111 0.6934 4.2405 17.0038 -2.5209 -0.0838 -13.0022 0.0000 0.0000 -0.0000 0.0000 0.0000 0.0000 8.8528 1.2052 -14.6383 -3.7533 3.6198 36.2525 0.0000 0.0000 0.0000 2.7710 3.5879 -13.1438 0.0000 0.0000 0.0000 -5.9152 -0.7564 0.5826 -73.3997 -16.4869 -7.4655 -12.8397 -5.6562 33.1371 17.9755 -2.8714 -1.2599 0.0000 0.0000 0.0000 16.0506 1.1922 1.0712 63.5146 34.5157 -2.5646 9.0864 10.9100 26.3762 -6.3968 2.5868 -0.4164 0.0000 0.0000 0.0000 0.4563 -1.9499 -25.5433 8.6340 5.4541 50.4936 -5.1401 0.8007 7.3141 -0.0000 0.0000 -0.0000
-90.5092 40.2282 -0.7041 -4.4941 81.6708 -4.2303 0.0000 0.0000 0.0000 2.0218 -5.0659 -0.0769 0.4234 5.1818 16.5932 -2.5805 -0.1322 -14.8051 0.0000 0.0000 -0.0000 0.0000 0.0000 0.0000 6.7760 2.2034 -13.3443 -1.9549 3.5766 31.3385 0.0000 0.0000 0.0000 2.3265 2.2422 -12.2289 0.0000 0.0000 0.0000 -8.1106 -1.6161 0.8000 -71.6017 -12.4516 -12.1981 -13.1369 -2.4839 36.3787 19.2536 -1.9587 -1.2086 0.0000 0.0000 0.0000 17.4751 0.8764 1.0566 60.8818 35.0268 5.2889 7.6410 15.0395 15.4056 -7.2636 1.9710 -0.4438 0.0000 0.0000 0.0000 0.4805 -1.6852 -28.1157 5.0421 4.6551 39.3809 1.5790 -0.3097 7.5250 -0.0000 0.0000 -0.0000
-88.8887 40.1244 -0.6296 -2.8403 81.6274 -1.4291 0.0000 0.0000 0.0000 1.6020 -5.0392 1.6725 -0.1132 5.0552 15.8836 -1.8952 -0.1347 -15.9523 0.0000 0.0000 -0.0000 0.0000 0.0000 0.0000 5.1208 2.9324 -12.0590 -0.4143 3.4795 26.6090 0.0000 0.0000 0.0000 1.6207 1.6088 -11.0045 0.0000 0.0000 0.0000 -10.3475 -2.3637 1.0340 -69.7185 -8.4428 -15.3703 -13.1520 0.6120 39.3207 19.1207 -1.8339 -1.1788 0.0000 0.0000 0.0000 18.8469 0.4867 1.0139 58.2873 34.9171 15.2686 4.6939 19.1408 4.6588 -7.9349 2.0599 -0.4913 0.0000 0.0000 0.0000 0.8404 -1.6736 -28.4669 3.3044 5.1084 25.0743 -1.4155 0.1971 7.5580 -0.0000 0.0000 -0.0000
-87.2558 40.0265 -0.5982 -1.8031 81.6981 -1.1818 0.0000 0.0000 0.0000 0.5428 -5.8152 5.6555 0.1092 5.6646 14.9996 -0.3599 -0.0780 -16.4725 0.0000 0.0000 -0.0000 0.0000 0.0000 0.0000 3.6589 3.2547 -7.1895 0.8065 3.3591 20.1910 0.0000 0.0000 0.0000 0.8705 1.5740 -9.4811 0.0000 0.0000 0.0000 -13.2741 -3.0241 1.3251 -67.1439 -3.7270 -17.0863 -13.4330 2.9210 42.7319 17.8242 -2.7761 -1.2353 0.0000 0.0000 0.0000 19.8863 0.3454 1.0155 55.6792 33.9020 22.7545 1.6859 22.6597 -2.9912 -8.2217 2.0923 -0.5117 0.0000 0.0000 0.0000 1.0122 -1.8607 -24.8458 1.9583 7.3600 8.5927 -5.0971 0.8431 8.7046 -0.0000 0.0000 -0.0000
-85.5726 39.8945 -0.5835 -2.0585 81.0555 -1.9646 0.0000 0.0000 0.0000 -0.5312 -6.4142 8.9749 0.5435 6.9564 14.7940 1.7060 0.0144 -16.3220 0.0000 0.0000 -0.0000 0.0000 0.0000 0.0000 2.6500 3.7332 -2.4562 1.7442 3.5710 13.5185 0.0000 0.0000 0.0000 0.3162 3.1362 -8.6424 0.0000 0.0000 0.0000 -17.1176 -3.4366 1.6489 -63.5947 1.7953 -17.4021 -14.4349 4.1289 45.0756 16.8735 -3.5412 -1.2747 0.0000 0.0000 0.0000 21.0898 0.4068 1.0752 52.7581 32.3724 24.9133 0.7623 25.5022 -5.4567 -8.2989 2.0018 -0.5110 0.0000 0.0000 0.0000 1.8300 -1.6943 -21.9253 -0.7357 8.5716 -3.6788 -3.8233 0.5950 7.8138 -0.0000 0.0000 -0.0000
-83.7992 39.6968 -0.5528 -1.6868 80.3780 -1.0360 0.0000 0.0000 0.0000 -1.2207 -6.2947 11.1389 0.2323 7.6224 14.7963 3.7635 0.0951 -16.0070 0.0000 0.0000 -0.0000 0.0000 0.0000 0.0000 2.8595 4.0945 -4.7084 0.6832 4.2623 15.1819 0.0000 0.0000 0.0000 0.5401 2.6586 -9.6143 0.0000 0.0000 0.0000 -17.3074 -3.4656 1.6697 -63.3961 4.5224 -16.8259 -14.9350 4.7333 45.2315 16.4550 -3.1766 -1.1924 0.0000 0.0000 0.0000 21.4321 0.3063 1.0601 52.3457 33.1665 24.8990 0.8573 26.8986 -4.9845 -8.1623 2.2404 -0.5171 0.0000 0.0000 0.0000 1.9487 -0.4910 -22.5678 -2.0970 9.1346 -5.7149 -5.0754 0.6117 2.7868 -0.0000 0.0000 -0.0000
-81.9143 39.5614 -0.4934 3.2489 80.6656 4.0367 0.0000 0.0000 0.0000 -2.0322 -5.3366 14.0501 -1.0292 6.0958 14.4111 6.6619 0.1301 -14.5601 0.0000 0.0000 -0.0000 0.0000 0.0000 0.0000 1.1779 3.9778 -7.4389 0.4935 4.3264 18.0766 0.0000 0.0000 0.0000 0.7320 2.2531 -10.7890 0.0000 0.0000 0.0000 -17.2292 -3.5180 1.6774 -63.5901 6.4762 -16.7870 -15.1393 4.6163 45.1537 15.6802 -2.5148 -1.0488 0.0000 0.0000 0.0000 21.1350 0.3980 1.0742 52.9486 33.2347 25.1434 0.8174 27.4672 -4.1326 -8.0463 2.5335 -0.5276 0.0000 0.0000 0.0000 0.7864 -0.8034 -21.3951 -2.5780 12.6008 -5.8227 -6.6149 0.8099 2.9673 -0.0000 0.0000 -0.0000
-79.8680 39.4945 -0.4114 11.6653 81.4010 12.1852 0.0000 0.0000 0.0000 -2.5447 -2.3871 16.5606 -2.3257 1.2670 15.7018 11.0479 -0.0832 -11.0287 0.0000 0.0000 -0.0000 0.0000 0.0000 0.0000 -2.1819 3.7034 -9.2561 1.8043 3.8137 19.5077 0.0000 0.0000 0.0000 0.7104 1.8540 -10.7313 0.0000 0.0000 0.0000 -17.7051 -3.6591 1.7422 -63.2205 8.2399 -17.8529 -15.0070 4.6208 46.6574 14.6209 -2.6093 -0.9869 0.0000 0.0000 0.0000 20.5886 0.6179 1.1141 53.8923 31.2060 24.9896 0.7712 27.7310 -3.2217 -8.1402 2.5518 -0.5351 0.0000 0.0000 0.0000 -1.0825 -1.9504 -19.1888 -2.4875 15.0161 -4.8605 -3.0867 0.4676 9.2295 -0.0000 0.0000 -0.0000
-77.8563 39.5184 -0.2968 25.8173 81.8094 26.7837 0.0000 0.0000 0.0000 -3.2265 2.0296 16.5503 -3.3751 -5.5672 19.7040 15.1013 -0.8921 -4.7737 0.0000 0.0000 -0.0000 0.0000 0.0000 0.0000 -6.5560 3.3533 -10.5639 2.9308 3.3256 19.5448 0.0000 0.0000 0.0000 1.1205 1.0755 -9.9257 0.0000 0.0000 0.0000 -17.8301 -3.5459 1.7230 -62.5251 9.0243 -19.2833 -14.6401 4.7287 48.9936 13.7578 -2.7507 -0.9429 0.0000 0.0000 0.0000 20.6396 0.1919 1.0007 55.0326 27.8397 25.0669 0.7391 27.5555 -2.7451 -8.0634 2.6282 -0.5344 0.0000 0.0000 0.0000 -3.3176 -2.8644 -18.2165 -2.7334 13.7641 -2.8487 2.2669 -0.5823 14.5064 -0.0000 0.0000 -0.0000
-76.0873 39.5266 -0.1926 45.4407 81.5222 46.9599 0.0000 0.0000 0.0000 -5.7249 1.6232 13.4187 -5.1393 -7.5497 27.9135 16.1799 -2.2992 5.0199 0.0000 0.0000 -0.0000 0.0000 0.0000 0.0000 -10.5925 2.4794 -11.4691 2.3225 2.7703 20.2317 0.0000 0.0000 0.0000 1.6299 0.5345 -9.7158 0.0000 0.0000 0.0000 -17.6192 -3.4984 1.6978 -61.6517 7.8945 -20.5048 -14.0788 4.9127 50.2589 13.5649 -2.3040 -0.8797 0.0000 0.0000 0.0000 20.6276 0.1516 0.9893 57.0320 24.9721 25.6127 0.6999 25.7672 -2.5735 -7.6513 3.1206 -0.5343 0.0000 0.0000 0.0000 -6.0694 -3.6376 -18.5762 -2.9258 12.0140 1.5643 3.6964 -0.8849 12.8903 -0.0000 0.0000 -0.0000
-74.5427 39.4199 -0.1599 61.9480 80.6007 63.0678 0.0000 0.0000 0.0000 -8.1709 0.4751 7.9969 -8.2145 -7.8458 40.0022 14.4025 -3.6347 17.4507 0.0000 0.0000 -0.0000 0.0000 0.0000 0.0000 -12.7309 1.4534 -10.2969 0.1219 2.1618 20.7567 0.0000 0.0000 0.0000 1.3690 0.8768 -10.2637 0.0000 0.0000 0.0000 -17.8479 -3.5269 1.7196 -60.3602 5.1262 -20.9728 -13.4637 5.0298 50.0361 13.9441 -1.9295 -0.8637 0.0000 0.0000 0.0000 19.8757 0.7923 1.1316 59.7072 23.0404 25.5667 1.5005 22.6173 -0.9235 -7.2123 3.6063 -0.5286 0.0000 0.0000 0.0000 -8.8545 -4.5198 -18.2171 -2.3866 11.6905 6.8443 2.5169 -0.4597 7.5604 -0.0000 0.0000 -0.0000
-73.0840 39.3409 -0.1975 68.9490 79.7879 69.2635 0.0000 0.0000 0.0000 -9.5122 0.6757 1.6845 -12.0940 -7.6587 51.7465 11.7891 -3.7663 24.7376 0.0000 0.0000 -0.0000 0.0000 0.0000 0.0000 -13.1911 0.7703 -8.0491 -2.1733 1.6419 20.4303 0.0000 0.0000 0.0000 0.2863 2.2839 -10.7290 0.0000 0.0000 0.0000 -18.7611 -3.3207 1.7264 -58.7779 1.5055 -21.0875 -12.7748 5.0431 49.9738 15.2032 -2.6299 -1.0313 0.0000 0.0000 0.0000 18.7869 1.5335 1.2768 61.4913 21.1955 21.8797 4.6337 19.5483 5.4125 -6.7355 3.3728 -0.4801 0.0000 0.0000 0.0000 -10.9375 -5.0775 -16.6521 -1.4148 11.5685 10.4824 3.9763 -0.5608 4.0969 -0.0000 0.0000 -0.0000
-71.4834 39.5073 -0.2606 69.7861 80.1549 69.7108 0.0000 0.0000 0.0000 -9.3720 1.2058 -4.9747 -16.4778 -7.2628 60.6911 9.2041 -2.8252 23.6172 0.0000 0.0000 -0.0000 0.0000 0.0000 0.0000 -12.4831 0.2397 -6.8727 -3.0977 1.0595 19.6981 0.0000 0.0000 0.0000 -0.5330 3.3517 -10.4148 0.0000 0.0000 0.0000 -19.6179 -2.7173 1.6241 -57.6395 -2.7001 -21.1035 -12.1870 5.0727 49.2279 16.6836 -3.3500 -1.2325 0.0000 0.0000 0.0000 18.4380 1.7545 1.3154 61.5270 18.7678 20.7957 6.9945 17.6602 9.3679 -6.0894 2.5817 -0.3958 0.0000 0.0000 0.0000 -11.6380 -4.8358 -14.1204 -0.9188 10.6823 11.6670 7.0376 -0.8479 2.1594 -0.0000 0.0000 -0.0000
